<svg width="189" height="72" viewBox="0 0 189 72" fill="none" xmlns="http://www.w3.org/2000/svg">
    <g opacity=".91" clip-path="url(#lga39n7yga)">
        <path d="M163.647 2.84c.598 0 1.102-.315 1.386-.82a30.041 30.041 0 0 0-2.992-.915v.126c0 .884.724 1.61 1.606 1.61zM167.08 5.114c.819 0 1.449-.663 1.449-1.452l-.032-.19a72.726 72.726 0 0 0-2.299-1.01 1.48 1.48 0 0 0-.598 1.168c0 .82.661 1.484 1.48 1.484zM170.513 7.513c.819 0 1.449-.663 1.449-1.452 0-.348-.126-.632-.315-.884l-.945-.537-.189-.031c-.819 0-1.449.662-1.449 1.452-.031.82.63 1.452 1.449 1.452zM173.946 9.88c.787 0 1.417-.631 1.417-1.42 0-.79-.63-1.421-1.417-1.421-.788 0-1.418.631-1.418 1.42-.031.79.63 1.42 1.418 1.42zM177.347 12.121a1.23 1.23 0 0 0 1.228-1.231l-.031-.284-.977-.947-.22-.032c-.693 0-1.26.569-1.26 1.263.031.663.598 1.231 1.26 1.231zM180.78 14.646c.378 0 .693-.158.945-.379a21.756 21.756 0 0 0-1.733-2.083 1.42 1.42 0 0 0-.598 1.136c.032.695.63 1.326 1.386 1.326zM154.387 1.705c.914 0 1.669-.695 1.827-1.579A33.187 33.187 0 0 0 153.127 0h-.566c.063.979.85 1.705 1.826 1.705zM157.82 4.009a1.75 1.75 0 0 0 1.732-1.736A1.75 1.75 0 0 0 157.82.537a1.75 1.75 0 0 0-1.732 1.736 1.73 1.73 0 0 0 1.732 1.736zM161.253 6.47c.976 0 1.764-.788 1.764-1.767a1.763 1.763 0 1 0-3.528 0c-.031.947.756 1.768 1.764 1.768zM166.292 7.07c0-.915-.724-1.64-1.638-1.64-.913 0-1.637.725-1.637 1.64 0 .916.724 1.642 1.637 1.642.914 0 1.638-.726 1.638-1.641zM169.883 9.501a1.763 1.763 0 1 0-3.528 0 1.763 1.763 0 1 0 3.528 0zM171.52 10.29c-.882 0-1.606.726-1.606 1.61 0 .884.724 1.61 1.606 1.61.882 0 1.607-.726 1.607-1.61.031-.884-.693-1.61-1.607-1.61zM173.41 14.299c0 .852.693 1.547 1.543 1.547a1.548 1.548 0 0 0 0-3.094c-.85 0-1.543.695-1.543 1.547zM176.938 16.73c0 .789.661 1.451 1.448 1.451.788 0 1.449-.662 1.449-1.451 0-.79-.661-1.453-1.449-1.453-.787-.031-1.448.632-1.448 1.453zM180.56 19.128c0 .695.566 1.263 1.259 1.263s1.26-.568 1.26-1.263c0-.694-.567-1.262-1.26-1.262-.693 0-1.259.568-1.259 1.262zM185.252 22.853c.441 0 .85-.22 1.102-.568l-.913-2.052-.158-.031c-.724 0-1.322.6-1.322 1.325-.032.726.567 1.326 1.291 1.326zM151.993 5.145c1.008 0 1.827-.82 1.827-1.862 0-1.042-.819-1.863-1.827-1.863-1.007 0-1.858.821-1.858 1.863 0 1.041.819 1.862 1.858 1.862zM158.828 6.029a2.079 2.079 0 0 0-2.078 2.083c0 1.137.944 2.083 2.078 2.083a2.1 2.1 0 0 0 2.079-2.083c.031-1.136-.914-2.083-2.079-2.083z" fill="#00A7CE"/>
        <path d="M162.261 12.468a1.964 1.964 0 0 0 1.952-1.957 1.964 1.964 0 0 0-1.952-1.957 1.965 1.965 0 0 0-1.953 1.957c.032 1.073.882 1.957 1.953 1.957zM165.694 14.867c1.07 0 1.921-.852 1.921-1.925a1.911 1.911 0 0 0-1.921-1.926 1.912 1.912 0 0 0-1.922 1.926c0 1.041.882 1.925 1.922 1.925zM169.127 17.077a1.75 1.75 0 0 0 1.732-1.736 1.75 1.75 0 0 0-1.732-1.736 1.75 1.75 0 0 0-1.732 1.736 1.75 1.75 0 0 0 1.732 1.736zM172.56 15.877c-1.039 0-1.858.821-1.858 1.863 0 1.041.819 1.862 1.858 1.862 1.039 0 1.858-.82 1.858-1.862 0-1.042-.85-1.863-1.858-1.863zM175.992 18.497c-.913 0-1.669.758-1.669 1.673s.756 1.673 1.669 1.673c.914 0 1.67-.758 1.67-1.673s-.756-1.673-1.67-1.673zM179.426 21.022a1.548 1.548 0 0 0 0 3.094 1.547 1.547 0 0 0 0-3.094zM181.441 24.968a1.4 1.4 0 0 0 1.386 1.389 1.4 1.4 0 0 0 1.386-1.389 1.4 1.4 0 0 0-1.386-1.389c-.756 0-1.386.6-1.386 1.389zM185.095 27.367a1.164 1.164 0 1 0 2.33 0c0-.663-.535-1.168-1.165-1.168s-1.165.505-1.165 1.168zM170.166 23.137a1.965 1.965 0 0 0 1.953-1.957 1.965 1.965 0 0 0-1.953-1.957 1.965 1.965 0 0 0-1.953 1.957c0 1.073.882 1.957 1.953 1.957zM171.835 23.58a1.763 1.763 0 1 0 3.528 0c0-.98-.787-1.768-1.764-1.768-.976.031-1.764.82-1.764 1.767zM175.426 26.01c0 .883.724 1.61 1.606 1.61.882 0 1.606-.727 1.606-1.61 0-.884-.724-1.61-1.606-1.61-.882 0-1.606.694-1.606 1.61zM180.433 26.799c-.881 0-1.606.726-1.606 1.61 0 .883.725 1.61 1.606 1.61.882 0 1.607-.727 1.607-1.61 0-.884-.725-1.61-1.607-1.61zM183.866 29.355c-.787 0-1.449.663-1.449 1.453 0 .789.662 1.452 1.449 1.452.788 0 1.449-.632 1.449-1.452 0-.821-.661-1.453-1.449-1.453zM186.071 33.206c0 .695.567 1.231 1.26 1.231.692 0 1.228-.568 1.228-1.23 0-.663-.567-1.232-1.228-1.232-.725 0-1.26.537-1.26 1.231zM169.158 27.02c0 1.136.914 2.02 2.016 2.02a2.033 2.033 0 0 0 2.016-2.02c0-1.105-.914-2.052-2.016-2.052-1.102.032-2.016.915-2.016 2.052zM174.607 31.313c1.039 0 1.89-.853 1.89-1.894a1.898 1.898 0 0 0-1.89-1.894c-1.039 0-1.89.852-1.89 1.894.032 1.041.851 1.894 1.89 1.894zM179.678 31.85c0-.916-.725-1.642-1.638-1.642-.913 0-1.638.726-1.638 1.641s.725 1.641 1.638 1.641c.913 0 1.638-.757 1.638-1.64zM180.024 34.248c0 .82.661 1.452 1.449 1.452.787 0 1.448-.663 1.448-1.452 0-.789-.661-1.452-1.448-1.452-.819-.031-1.449.631-1.449 1.452zM186.355 36.647c0-.82-.662-1.452-1.449-1.452-.788 0-1.449.663-1.449 1.452 0 .79.661 1.452 1.449 1.452.787.032 1.449-.631 1.449-1.452zM188.338 37.815c-.692 0-1.259.568-1.259 1.231 0 .663.567 1.231 1.259 1.231.158 0 .315-.032.473-.095a25.44 25.44 0 0 0 .189-2.21 1.464 1.464 0 0 0-.662-.157zM173.725 35.258c0 1.042.85 1.894 1.89 1.894 1.039 0 1.921-.852 1.921-1.894 0-1.041-.85-1.894-1.921-1.894-1.071 0-1.89.853-1.89 1.894zM179.079 39.393c.945 0 1.701-.757 1.701-1.704s-.756-1.705-1.701-1.705c-.945 0-1.701.758-1.701 1.705 0 .947.756 1.704 1.701 1.704zM183.961 40.088c0-.821-.661-1.452-1.449-1.452-.787 0-1.449.662-1.449 1.452 0 .789.662 1.452 1.449 1.452.788 0 1.449-.632 1.449-1.452zM185.945 43.75a1.23 1.23 0 0 0 1.228-1.232c0-.663-.567-1.262-1.228-1.262-.662 0-1.26.568-1.26 1.262 0 .695.567 1.231 1.26 1.231zM171.332 38.699a1.91 1.91 0 0 0 1.921 1.925 1.91 1.91 0 0 0 1.921-1.925 1.91 1.91 0 0 0-1.921-1.926c-1.071.032-1.921.884-1.921 1.926zM174.764 41.13c0 1.072.851 1.925 1.921 1.925a1.912 1.912 0 0 0 1.922-1.926 1.911 1.911 0 0 0-1.922-1.925c-1.07 0-1.921.852-1.921 1.925zM181.788 43.528c0-.915-.756-1.673-1.701-1.673-.945 0-1.669.758-1.669 1.673 0 .916.756 1.705 1.669 1.705.945-.032 1.701-.79 1.701-1.705zM184.969 45.927c0-.789-.63-1.42-1.417-1.42-.788 0-1.418.631-1.418 1.42 0 .79.63 1.42 1.418 1.42.787 0 1.417-.63 1.417-1.42zM185.756 48.326c0 .505.283.916.724 1.105l.819-2.273-.315-.063c-.693.032-1.228.568-1.228 1.231zM172.371 44.538c0 1.042.85 1.894 1.889 1.894 1.04 0 1.89-.852 1.89-1.894 0-1.041-.85-1.893-1.89-1.893a1.897 1.897 0 0 0-1.889 1.893zM177.693 48.61c.914 0 1.638-.726 1.638-1.641 0-.916-.724-1.642-1.638-1.642-.913 0-1.637.727-1.637 1.642 0 .915.724 1.641 1.637 1.641zM182.764 49.368c0-.916-.724-1.642-1.638-1.642-.913 0-1.637.726-1.637 1.642 0 .915.724 1.641 1.637 1.641.914 0 1.638-.726 1.638-1.641zM184.559 50.378a1.4 1.4 0 0 0-1.386 1.389 1.4 1.4 0 0 0 1.386 1.389l.189-.032 1.008-2.052c-.252-.41-.693-.694-1.197-.694zM175.3 52.209a1.83 1.83 0 0 0 0-3.662c-1.008 0-1.795.82-1.795 1.83a1.783 1.783 0 0 0 1.795 1.832zM180.307 52.808c0-.883-.724-1.61-1.606-1.61-.882 0-1.575.727-1.575 1.61 0 .884.725 1.579 1.575 1.579.914 0 1.606-.695 1.606-1.579zM182.166 53.882c-.725 0-1.323.6-1.323 1.325 0 .726.598 1.326 1.323 1.326a1.3 1.3 0 0 0 .598-.158l.724-1.105v-.063c0-.726-.598-1.325-1.322-1.325zM171.08 53.85c0 1.01.818 1.8 1.795 1.8.976 0 1.826-.821 1.826-1.8 0-.979-.818-1.83-1.826-1.83-.977 0-1.795.82-1.795 1.83zM178.04 56.249a1.75 1.75 0 0 0-1.733-1.736 1.73 1.73 0 0 0-1.732 1.736 1.73 1.73 0 0 0 1.732 1.736 1.75 1.75 0 0 0 1.733-1.736zM179.741 57.196c-.788 0-1.449.663-1.449 1.452 0 .79.661 1.452 1.449 1.452h.094l1.323-1.578c-.063-.758-.661-1.326-1.417-1.326zM172.434 57.26a1.965 1.965 0 0 0-1.953-1.958 1.965 1.965 0 0 0-1.953 1.957c0 1.073.882 1.926 1.953 1.926 1.071.031 1.953-.853 1.953-1.926zM173.914 61.331c.913 0 1.638-.726 1.638-1.641 0-.916-.725-1.642-1.638-1.642-.913 0-1.638.726-1.638 1.642 0 .915.756 1.641 1.638 1.641zM177.347 60.636c-.787 0-1.449.632-1.449 1.453 0 .505.252.946.662 1.199.693-.6 1.386-1.231 2.047-1.894-.252-.442-.693-.758-1.26-.758zM170.135 60.7a2.046 2.046 0 0 0-2.048-2.052c-1.133 0-2.015.915-2.015 2.052 0 1.136.913 2.02 2.015 2.02 1.134.031 2.048-.884 2.048-2.02zM171.52 61.394c-.945 0-1.732.758-1.732 1.736a1.71 1.71 0 0 0 1.732 1.736 1.71 1.71 0 0 0 1.733-1.736 1.73 1.73 0 0 0-1.733-1.736zM173.41 65.53l.032.189a34.645 34.645 0 0 0 2.141-1.61 1.408 1.408 0 0 0-.63-.126c-.85 0-1.543.694-1.543 1.546zM163.804 64.14c0 1.042.851 1.894 1.89 1.894s1.89-.852 1.89-1.894a1.898 1.898 0 0 0-1.89-1.894c-1.039 0-1.89.853-1.89 1.894zM169.127 64.835c-.945 0-1.732.757-1.732 1.736 0 .978.755 1.704 1.7 1.736l1.418-.758c.188-.284.283-.6.283-.978a1.658 1.658 0 0 0-1.669-1.736zM163.3 65.655a1.91 1.91 0 0 0-1.921 1.926 1.91 1.91 0 0 0 1.921 1.925 1.91 1.91 0 0 0 1.921-1.925c-.031-1.073-.882-1.926-1.921-1.926zM164.97 69.98v.031c1.039-.378 2.047-.757 3.055-1.23a1.76 1.76 0 0 0-1.292-.569c-.976.032-1.763.82-1.763 1.768zM160.875 69.254c-.976 0-1.764.789-1.764 1.767 0 .19.032.348.095.505a29.59 29.59 0 0 0 3.401-.757c-.126-.852-.85-1.515-1.732-1.515zM129.664 9.975c.22-.726.756-1.547 1.512-2.368l-.41.19a37.03 37.03 0 0 0-6.708 6.976l-.158.347c1.638-1.989 3.559-3.693 5.764-5.145zM145.348 26.073h2.709l-1.102-2.21-.284.158c-2.016 1.01-4.063 1.925-6.11 2.683l-1.323.474-.441.157-.85.284-.094.032 3.243 4.893M137.065 7.355a37.394 37.394 0 0 0-6.488 4.545c.441.284 1.134.442 1.984.473a36.044 36.044 0 0 1 4.504-5.018zm.724-.158a34.155 34.155 0 0 0-4.787 5.176c.914-.031 1.984-.22 3.118-.568.441-1.704 1.008-3.25 1.669-4.608zM139.049 68.686a23.346 23.346 0 0 1-1.669-.253 36.548 36.548 0 0 0 4.756 1.926l-.441-.221a26.702 26.702 0 0 1-2.646-1.452zM126.01 25.82l.063-.19c.441-1.42.882-2.808 1.449-4.166l.315-.82c-1.071-.095-2.016-.316-2.74-.695l-.504-.284-.094-.063-.41-.347-.031-.032a37.901 37.901 0 0 0-2.614 4.514c-.41.852-.756 1.705-1.103 2.588 1.103-.442 2.362-.694 3.748-.694.662 0 1.323.063 1.921.19zm5.26 3.094a24.807 24.807 0 0 0 2.488-.505l-1.669-2.336h2.803a68.427 68.427 0 0 1-.032-5.682l.032-.568-.252.063c-1.89.474-3.937.852-5.89.82h-.535l-.409.98c-.536 1.293-.977 2.714-1.418 4.071l-.063.19c2.11.378 3.78 1.451 4.945 2.967zM140.971 7.576c.314 0 .566.252.566.568a.565.565 0 0 1-.566.568.565.565 0 0 1-.567-.568c0-.316.252-.568.567-.568zm-.882 2.62-.095-.19-1.606-3.156c-.724 1.389-1.354 3.03-1.858 4.83a19.135 19.135 0 0 0 3.244-1.358l.315-.127zm.315-.158.283-.127a21.597 21.597 0 0 0 2.992-1.83l-.85-.316c-1.134-.41-2.299-.758-3.496-.947l-.63-.095 1.606 3.157.095.158zM139.837 5.555l.189-.094c2.299-1.042 4.756-1.831 7.212-2.4l.158-.03-.126-.348a1.184 1.184 0 0 0-.41-.473l-.441-.253a26.506 26.506 0 0 0-4.535 2.273 18.72 18.72 0 0 0-2.047 1.325zm4.756.127h-.063a38.914 38.914 0 0 0-5.103.694h-.031l.252.063c1.071.221 2.079.505 3.118.853l1.323.473.693-.568a12.386 12.386 0 0 0 1.448-1.42l.158-.19h-.158l-1.637.095zm-5.323-.316-.189.316a35.408 35.408 0 0 1 2.614-1.831c1.354-.82 2.74-1.547 4.189-2.115-.693-.158-1.575-.126-2.614 0l-.378.063c-1.291.916-2.488 2.083-3.622 3.567zm6.425-1.547-.252.063a39.841 39.841 0 0 0-5.323 1.958l-.189.063.126-.032c2.142-.41 4.284-.6 6.457-.631h.126c.504-.695.756-1.326.787-1.863l-.189.032-1.543.41zM118.704 45.106a7.214 7.214 0 0 0 1.7 1.326l.504.253c1.323.6 2.709.915 4.158 1.104l.252.032-.189-1.041-.189-.884-.095-.6h-.346c-2.772 0-4.977-.79-6.614-2.146l.283 1.325.473.568m5.637-5.429v-.631l-.441-.063c-1.543-.19-3.118-.568-4.44-1.358l-.41-.252c.473 2.84 2.52 4.42 5.449 4.482v-.063l-.158-2.115zM131.774 63.004l.85.158h.095l-.126-.158c-1.449-1.705-2.772-3.725-3.811-5.713l-.378-.695-.567-.063c-.756-.095-1.48-.252-2.204-.41l-.819-.253a9.617 9.617 0 0 1-2.551-1.262c1.574 2.588 3.433 4.987 5.574 7.102l1.418.663a18.36 18.36 0 0 0 2.519.63zM137.443 67.58c-1.543-1.135-2.992-2.493-4.346-4.008h-.063l-1.323-.19a14.634 14.634 0 0 1-2.582-.694l-.41-.19a34.109 34.109 0 0 0 6.929 5.02c.787.315 1.669.536 2.677.694M143.648 56.565l.913 1.61c.598 1.01 1.228 2.051 1.89 2.998l.346.505.504-.126c3.024-.82 6.016-1.862 8.945-3.03l1.385-.569c1.67-.726 3.339-1.483 4.945-2.304l.284-.158-.126-.284-1.103-2.21v.064a.565.565 0 0 1-.567.568.565.565 0 0 1-.567-.568c0-.316.252-.568.567-.568a.58.58 0 0 1 .378.158l-2.047-4.072-.283.157a79.978 79.978 0 0 1-6.047 2.778c-3.465 1.452-6.898 2.62-10.205 3.472l.536 1.042m15.306-.284a.58.58 0 0 1 .599.6.6.6 0 0 1-.599.6.62.62 0 0 1-.598-.6c0-.316.283-.6.598-.6zm-3.464-2.178a.316.316 0 0 1 0 .631.316.316 0 0 1-.315-.315c0-.19.126-.316.315-.316zM156.025 15.625l-.913-.726-.63-.505-.976-.758-.536-.41-1.543-1.073-.598-.38a31.211 31.211 0 0 1-2.237 1.61c-1.48 1.01-3.086 1.926-4.755 2.778l-.284.127 3.339 6.66.189.347.283-.126a68.312 68.312 0 0 0 5.764-3.283l1.165-.758c.882-.63 1.764-1.23 2.614-1.893l.535-.41-.755-.632m-5.418-.379a.417.417 0 0 1-.409-.41c0-.221.189-.41.409-.41.221 0 .41.189.41.41 0 .22-.189.41-.41.41zm3.465 2.304a.418.418 0 0 1-.41-.41c0-.22.189-.41.41-.41.22 0 .409.19.409.41 0 .253-.189.41-.409.41zM129.853 56.312h.724c3.559.063 7.086-.505 10.519-1.294l1.166-.284a78.904 78.904 0 0 1-2.3-5.208l-.535-1.42-.157-.474-.315-.884-.725.19c-3.905.946-8.125 1.61-12.125 1.325l-.347-.032.221.884a35.743 35.743 0 0 0 2.33 6.44l.315.663.599.031" fill="#00A7CE"/>
        <path d="M146.671 7.828a.666.666 0 0 1-.661-.663c0-.378.315-.663.661-.663.378 0 .661.285.661.663a.646.646 0 0 1-.661.663zm7.055 4.766a.7.7 0 0 1-.693-.694.7.7 0 0 1 .693-.694.7.7 0 0 1 .693.694c-.032.41-.315.694-.693.694zm3.275 2.4a.666.666 0 0 1-.661-.663c0-.348.283-.663.661-.663.347 0 .662.284.662.663a.666.666 0 0 1-.662.662zm3.465 2.556a.632.632 0 0 1 0-1.262c.346 0 .63.284.63.63a.633.633 0 0 1-.63.632zm3.433 2.494a.747.747 0 0 1-.756-.758c0-.442.346-.757.756-.757.409 0 .756.347.756.757.031.41-.315.758-.756.758zm-3.622 12.279a.35.35 0 0 1-.347-.348.35.35 0 0 1 .347-.347.35.35 0 0 1 .346.348.35.35 0 0 1-.346.347zm2.425-3.315a.498.498 0 0 1-.504-.505c0-.284.22-.505.504-.505.283 0 .504.221.504.505-.032.284-.252.505-.504.505zm.976 5.871a.552.552 0 0 1-.535-.536c0-.284.252-.537.535-.537.284 0 .536.221.536.537a.532.532 0 0 1-.536.536zm.599-9.722c0-.378.315-.694.724-.694a.7.7 0 0 1 .693.694.7.7 0 0 1-.693.695c-.378.031-.724-.284-.724-.695zm1.858 6.534a.767.767 0 0 1-.756-.757c0-.442.346-.79.756-.79a.78.78 0 0 1 .787.79c0 .41-.346.757-.787.757zm-6.268 15.94a.35.35 0 0 1-.346-.346.35.35 0 0 1 .346-.348.35.35 0 0 1 .347.348c.031.189-.126.347-.347.347zm1.292-9.343c-.189 0-.315-.157-.315-.347 0-.19.157-.347.315-.347.189 0 .315.158.315.347.031.19-.126.347-.315.347zm1.165 5.966a.431.431 0 0 1-.441-.442c0-.252.189-.442.441-.442s.441.19.441.442a.451.451 0 0 1-.441.442zm2.362-3.314a.498.498 0 0 1-.504-.505c0-.284.221-.505.504-.505.283 0 .504.22.504.505a.498.498 0 0 1-.504.505zm4.252 1.925c0 .41-.347.758-.788.758a.767.767 0 0 1-.755-.758c0-.442.346-.757.755-.757.441-.032.788.316.788.757zm-1.795-6.628a.599.599 0 0 1 0 1.2.599.599 0 0 1-.599-.6c0-.316.284-.6.599-.6zm-1.355 9.47c.315 0 .567.252.567.567a.565.565 0 0 1-.567.569.565.565 0 0 1-.567-.569c0-.315.252-.568.567-.568zm-2.96 3.945c0-.284.252-.537.535-.537.284 0 .536.253.536.537a.553.553 0 0 1-.536.536.531.531 0 0 1-.535-.536zm-8.85 14.11a.632.632 0 0 1 0-1.263c.346 0 .63.284.63.631a.633.633 0 0 1-.63.631zm2.267-3.346a.564.564 0 0 1-.566-.569c0-.315.251-.568.566-.568.315 0 .567.253.567.568a.565.565 0 0 1-.567.569zm3.465 2.62a.7.7 0 0 1-.693-.695.7.7 0 0 1 .693-.694.7.7 0 0 1 .693.694.7.7 0 0 1-.693.694zm2.488-3.536a.7.7 0 0 1-.693-.694.7.7 0 0 1 .693-.695.7.7 0 0 1 .693.695.7.7 0 0 1-.693.694zm-13.007 11.143a.7.7 0 0 1-.693-.695.7.7 0 0 1 .693-.694.7.7 0 0 1 .692.694.699.699 0 0 1-.692.695zm-.756-57.512c.724-.505 1.448-1.01 2.11-1.515-2.205-1.42-4.378-2.557-6.425-3.378l-.063.032a28.47 28.47 0 0 1-3.181 1.957l-.283.126 2.708 5.398.126.284.284-.126a43.298 43.298 0 0 0 4.724-2.778zm-.725-.568c.221 0 .41.19.41.41 0 .221-.189.41-.41.41a.417.417 0 0 1-.409-.41c0-.22.189-.41.409-.41zm-3.433-2.494c.252 0 .473.221.473.474a.485.485 0 0 1-.473.473.484.484 0 0 1-.472-.473c0-.253.189-.474.472-.474zm8.347 56.596.724-.22c1.134-.316 2.236-.695 3.37-1.105l.094-.032a.697.697 0 0 1 .662-.442c.126 0 .22.032.315.095l.315-.126a75.38 75.38 0 0 0 5.7-2.43l.252.094-.094.252-1.544.726c-1.448.663-2.897 1.232-4.314 1.768.063.095.094.221.094.347a.7.7 0 0 1-.693.695.711.711 0 0 1-.693-.569 52.764 52.764 0 0 1-5.417 1.642l-2.015.473c-2.866.632-5.512.947-7.843.947h-.944l-.662-.031a23.799 23.799 0 0 0 5.543 2.367c1.606.253 3.528.253 5.701-.031a34.592 34.592 0 0 0 3.307-.569l.22.127-.126.22a35.144 35.144 0 0 1-3.338.569c-1.103.126-2.142.19-3.118.22 1.669.222 3.338.348 5.07.348 1.323 0 2.646-.063 3.937-.221a2.038 2.038 0 0 0-1.984-1.8h-.252c-.472.032-.819-.22-.882-.63-.063-.41.221-.821.63-.884.41-.063.819.22.882.631v.032a2.06 2.06 0 0 0 1.984 1.515 2.08 2.08 0 0 0 2.079-2.084v-.094a.972.972 0 0 1 .787-1.137c1.008-.189 1.764-1.104 1.764-2.21v-.252c-.095-.473.252-.947.724-1.041.945-.253 1.67-1.105 1.67-2.147l-.063-.442c-.095-.473.252-.915.724-1.01a2.036 2.036 0 0 0 1.543-1.988c0-1.137-.913-2.02-2.015-2.02l-.252.031c-.41.063-.788-.19-.851-.568-.063-.379.221-.758.63-.82.41-.064.787.189.85.567a2.1 2.1 0 0 0 2.048 1.547 2.146 2.146 0 0 0 2.141-2.146c0-1.2-.945-2.147-2.141-2.147l-.158.032a.76.76 0 1 1 .567-.915 2.03 2.03 0 0 0 1.984 1.61 2.032 2.032 0 0 0 2.016-2.021c0-1.105-.913-2.02-2.016-2.02h-.22a.75.75 0 0 1-.914-.632.75.75 0 0 1 .63-.915.75.75 0 0 1 .914.631 2.062 2.062 0 0 0 2.015 1.579 2.08 2.08 0 0 0 2.079-2.084 2.08 2.08 0 0 0-2.079-2.083l-.126.032a.865.865 0 0 1-1.007-.726.866.866 0 0 1 .724-1.01 2.139 2.139 0 0 0 1.543-2.052 2.12 2.12 0 0 0-2.142-2.115h-.188a.874.874 0 0 1-.945-.758c-.063-.473.252-.883.724-.915.85-.19 1.48-1.073 1.48-2.02l-.031-.379a.86.86 0 0 1 .693-1.01c.976-.19 1.732-1.042 1.732-2.052a2.08 2.08 0 0 0-2.079-2.083 2.099 2.099 0 0 0-2.078 2.083l.031.284a.8.8 0 0 1-.661.947.84.84 0 0 1-.945-.663.841.841 0 0 1 .661-.947 2.098 2.098 0 0 0 1.669-2.051 2.078 2.078 0 0 0-2.078-2.083h-.221a.814.814 0 0 1-.976-.695.879.879 0 0 1 .693-.979c.945-.22 1.638-1.073 1.638-2.114a2.18 2.18 0 0 0-2.174-2.178h-.22a.88.88 0 0 1-.976-.758.882.882 0 0 1 .756-.978 2.075 2.075 0 0 0 1.448-1.957 2.045 2.045 0 0 0-2.047-2.052h-.126c-.535.063-1.071-.316-1.134-.852a2.233 2.233 0 0 0-2.173-1.736h-.157c-.504.126-.977-.222-1.071-.727-.252-.978-1.134-1.704-2.173-1.704l-.441.032c-.473.063-.913-.285-1.008-.79a2.07 2.07 0 0 0-2.016-1.515l-.283.032c-.472.063-.913-.253-1.008-.758-.063-.505.252-.947.724-1.041h-.031a2.045 2.045 0 0 0-.441-4.04 2.045 2.045 0 0 0-2.047 2.051l.031.284c.063.474-.252.915-.724.979a.858.858 0 0 1-.976-.726c-.221-.947-1.071-1.673-2.079-1.673l-.283.031a.937.937 0 0 1-1.04-.757c-.063-.505.252-.979.756-1.042a1.96 1.96 0 0 0 1.48-1.894c0-.284-.063-.536-.157-.789-2.236.158-4.441.568-6.551 1.136l-.189.095c1.134-.126 2.11-.063 2.803.19a24.639 24.639 0 0 1 2.961-.916l.22.126-.126.221c-.85.221-1.701.474-2.551.79l.189.126c.22.189.409.378.535.631.095.19.158.41.189.663.032.6-.22 1.357-.724 2.115 1.071 0 2.142.063 3.244.158l.157.189-.189.158a42.266 42.266 0 0 0-3.433-.158l-.283.347c-.472.568-1.008 1.073-1.543 1.547l-.567.442c2.079.852 4.22 1.988 6.425 3.409l.378-.284c1.448-1.2 2.866-2.557 4-4.072l.252-.379-1.449-.316-.158-.22.221-.158 1.606.347c.283-.474.535-.916.724-1.358l.252-.094.095.252c-.189.474-.473.979-.819 1.515l-.409.632c-1.134 1.546-2.52 2.904-4 4.103l-.315.253.472.315a58.42 58.42 0 0 1 5.228 3.978l.851.726a39.165 39.165 0 0 0 3.527-3.189h.252v.253a38.657 38.657 0 0 1-3.496 3.188l1.039.947a72.918 72.918 0 0 1 4.662 4.703l.598.663 1.543-1.294h.252l-.031.252-1.701 1.42a65.065 65.065 0 0 1-6.456 4.578 82.077 82.077 0 0 1-6.331 3.567l-.283.126 3.874 7.702.189.379.283-.127a87.958 87.958 0 0 0 6.33-3.535c2.866-1.768 5.544-3.63 7.937-5.587l.252.032-.031.252c-2.394 1.957-5.103 3.851-8 5.619a93.646 93.646 0 0 1-6.331 3.535l-.283.126 3.748 7.45.189.347.283-.126a114.736 114.736 0 0 0 5.827-3.188l.252.063-.063.252a94.725 94.725 0 0 1-5.827 3.22l-.283.126 3.559 7.102 2.047 4.072-.158.095-.189.063-1.952-3.883-.284.158c-1.637.82-3.307 1.61-4.976 2.336l-1.386.568c-2.834 1.168-5.732 2.178-8.692 2.967l-.662.19.378.505a29.717 29.717 0 0 0 3.307 3.85l.221.222 1.512.157zm-2.489-56.533a.632.632 0 0 1 0-1.262.632.632 0 0 1 0 1.262z" fill="#00A7CE"/>
        <path d="M142.23 64.772a.35.35 0 0 1 .347.347.35.35 0 0 1-.347.347.35.35 0 0 1-.346-.347c0-.221.157-.347.346-.347zm-1.323-1.863 1.386-.22c1.134-.222 2.299-.443 3.433-.727l.725-.19-.063-.125a47.028 47.028 0 0 1-3.339-5.556l-.535-1.041-1.229.284c-3.81.883-7.905 1.515-11.842 1.262l-.504-.031.315.631c1.04 1.925 2.237 3.756 3.622 5.43l.473.536c2.141.252 4.692.158 7.558-.253zm.032 5.524c1.417.032 2.96-.063 4.598-.284a.645.645 0 0 1-.504-.631c0-.347.284-.663.662-.663.346 0 .661.284.661.663 0 .252-.126.442-.346.568a69.309 69.309 0 0 0 3.212-.568l1.701-.41-.284-.285a32.786 32.786 0 0 1-3.59-4.198l-.378-.505-.85.221c-1.134.284-2.299.505-3.433.726l-1.386.221c-1.89.284-3.653.41-5.26.41-.724 0-1.385-.031-2.047-.094a25.614 25.614 0 0 0 4 3.661l1.512 1.042 1.386.095.346.031zM138.23 5.713l.189.347.567-.915a16.854 16.854 0 0 1 3.024-3.125c-1.417.347-2.929.916-4.441 1.673l-.031.032-.252.126M142.955 15.909l-2.709-5.398-.283.126c-1.166.569-2.331 1.074-3.465 1.42l-.063.064c-.504 2.02-.819 4.103-1.008 6.155l-.094 1.01c.819-.22 1.638-.505 2.488-.789 1.669-.6 3.37-1.326 5.008-2.178l.283-.158M138.073 6.218l-.189-.347-.945-1.862-.283.126c-1.48.758-2.866 1.641-3.968 2.588a16.6 16.6 0 0 1 4.314-.568m.378.379-.378-.032c-1.858.032-3.496.285-4.944.79l-.284.284c-.724.726-1.26 1.452-1.575 2.083a28.965 28.965 0 0 1 4.189-2.115 27.766 27.766 0 0 1 2.992-1.01zm-11.968 10.227 1.386-1.641.032-.032 1.48-1.578.063-.063 1.543-1.452.095-.095-.063-.063-.063-.063-.158-.253a1.714 1.714 0 0 1-.189-.789l.032-.252c-2.331 1.578-4.347 3.472-5.953 5.65l-.031.095-.032.126c-.126.726-.031 1.357.221 1.894l.22.378.095-.126 1.228-1.641.094-.095zm4.85-5.113c2.048-1.705 4.221-3.252 6.551-4.546-.787.253-1.574.505-2.299.82a26.263 26.263 0 0 0-4.503 2.305c-.032.19-.063.347-.063.505 0 .221.031.442.126.632l.188.284zm2.016 1.104c-.85-.031-1.543-.252-1.984-.568l-.095.063a36.488 36.488 0 0 0-5.858 6.597l-.063.095.032.032.378.315.063.032.504.284c.724.347 1.638.568 2.74.663a39.478 39.478 0 0 1 2.519-4.861c.536-.916 1.134-1.8 1.764-2.652zm.441 0a45.533 45.533 0 0 0-1.921 2.873 36.492 36.492 0 0 0-2.425 4.671l.252.032c1.165 0 2.33-.095 3.496-.284h.031a33.88 33.88 0 0 0 2.772-.6 40.572 40.572 0 0 1 1.071-7.197 14.55 14.55 0 0 1-3.276.505zM137.632 27.335l.189-.063.882-.284.409-.126 1.292-.474a63.842 63.842 0 0 0 6.078-2.683l.284-.157-.189-.348-3.307-6.66-.284.158a41.529 41.529 0 0 1-5.071 2.178c-.881.316-1.763.6-2.614.82l-.031.695c-.095 1.83-.063 3.725.031 5.682h1.544M131.522 29.23c1.134 1.578 1.732 3.598 1.732 5.87 0 .569-.031 1.042-.063 1.358h-8.503l-.032.726v1.483l.473.032c3.464.19 7.149-.379 10.487-1.2l.756-.19-.22-1.072a67.742 67.742 0 0 1-.882-5.65l-1.291-1.831c-.851.19-1.67.347-2.457.473zM118.767 36.931l.094.063c1.418 1.042 3.181 1.484 4.882 1.705l.378.063V37.31l.031-.695h-5.417" fill="#00A7CE"/>
        <path d="m131.459 44.886 5.039-7.04-.031-.189-.347.095c-3.559.884-7.338 1.483-10.991 1.294l-.473-.032v.6l.126 2.115v.063c2.142-.031 3.937-.884 5.291-2.367l2.583 2.462c-1.827 1.925-4.22 3.22-7.433 3.377l.095.6.189.884.22 1.073.882.063c3.811.221 7.968-.473 11.684-1.357l.567-.158-.283-.884-.189-.536-.315-.979-.189-.568-.22-.726-1.512 2.21m9.637 0-.157-.221-.347.126-1.543.537-.85.284-1.418.441-.944.253-1.197.347.315.884.157.474.536 1.42c.724 1.83 1.48 3.598 2.299 5.271 3.307-.852 6.771-2.051 10.236-3.503a93.721 93.721 0 0 0 6.015-2.778l.283-.158-3.905-7.796-.283.126a81.866 81.866 0 0 1-5.638 2.588l1.197 1.673h-4.756v.032zm-7.81-2.62.031.126.252.915.22.695.252.852.252.758.221.694 1.134-.316 1.039-.284 1.197-.379 1.102-.347 1.764-.631-4.378-6.597-3.086 4.514zM135.742 31.186l.063.505c.221 1.515.441 3.03.756 4.546l.189.978.252-.063 1.48-2.083M144.026 34.785c2.204-.852 4.409-1.863 6.582-2.967l.283-.158-2.015-4.009-5.071 7.228M149.096 27.335l2.11 4.198.284-.157a81.138 81.138 0 0 0 6.299-3.536 75.722 75.722 0 0 0 6.267-4.419l-.724-.82c-1.418-1.579-2.929-3.062-4.473-4.514l-1.102-.979-.567.442a56.98 56.98 0 0 1-2.645 1.926l-1.166.789a64.261 64.261 0 0 1-5.795 3.314l-.283.126 1.197 2.368h1.511M161.473 22c.347 0 .599.284.599.6a.58.58 0 0 1-.599.6.598.598 0 0 1-.598-.6c0-.348.283-.6.598-.6zm-2.393 3.598c.22 0 .409.19.409.41 0 .222-.189.411-.409.411a.418.418 0 0 1-.41-.41c0-.221.189-.41.41-.41zm-.882-5.902c.283 0 .504.22.504.505a.498.498 0 0 1-.504.505.498.498 0 0 1-.504-.505c0-.284.221-.505.504-.505zm-2.551 3.724a.316.316 0 0 1 0 .632.316.316 0 0 1-.315-.316c0-.19.126-.316.315-.316z" fill="#00A7CE"/>
        <path d="m154.86 40.245.283-.126-.22-.379-3.874-7.701-.284.126a71.984 71.984 0 0 1-6.614 2.967l-.378.158 5.386 7.607c1.921-.82 3.811-1.704 5.701-2.651z" fill="#00A7CE"/>
        <path d="M161.442 52.619h-.063l.221.442.063-.032v-.031a.589.589 0 0 0-.221-.379z" fill="#fff"/>
        <path d="m127.113 29.671-.693-.379-.819-.284-.346-.063a6.246 6.246 0 0 0-1.103-.095c-.315 0-.63.032-.913.064l-.756.157c-2.047.6-3.338 2.305-3.527 4.546h10.33c-.189-1.862-1.008-3.188-2.173-3.946zM108.248 25.82c-2.709 0-4.819 1.263-6.362 3.504v-3.093h-3.118v16.192h-1.921c-1.04 0-1.418-.6-1.418-2.02V26.231h-3.118v3.093c-1.763-2.494-4.063-3.504-6.614-3.504-5.29 0-8.535 4.23-8.535 9.785 0 5.556 3.181 9.69 8.661 9.69 2.426 0 4.977-.82 6.646-3.282.378 2.304 2.047 2.873 3.78 2.873h5.637V34.564c0-3.472 2.425-5.808 5.606-5.808 3.464 0 4.157 2.62 4.157 4.83v11.268h3.118V32.859c0-4.419-2.519-7.039-6.519-7.039zM86.296 42.455c-3.937 0-5.827-3.093-5.827-6.881 0-3.788 1.922-6.85 5.858-6.85 3.937 0 6.016 2.999 6.016 6.85-.032 3.788-2.079 6.881-6.047 6.881zm-26.298-.41h-4.032c-1.89 0-2.866-1.074-2.866-3.22V28.82h6.866v13.226h.032zm-26.55-8.113c.252-3.156 2.425-5.397 5.669-5.397 2.929 0 5.354 1.83 5.669 5.397H33.448zM22.613 25.82c-2.771 0-5.039 1.42-6.582 3.756-.85-2.43-2.834-3.756-5.574-3.756-2.74 0-4.536 1.231-6.048 3.44v-2.998H1.292v18.624h3.117V34.469c0-3.44 2.205-5.682 5.229-5.682 3.275 0 3.905 2.4 3.905 4.735v11.395h3.118V34.501c0-3.41 2.3-5.682 5.26-5.682 3.244 0 3.905 2.399 3.905 4.735v11.395h3.118V32.796c-.032-4.387-2.362-6.976-6.33-6.976zm46.833 0c-2.708 0-4.819 1.263-6.362 3.504V19.286h-3.118v6.945H53.1v-6.945h-3.118v6.945H46.77v2.588h3.212v10.006c0 1.768.22 2.778.788 3.693 1.008 1.61 2.677 2.368 4.85 2.368l.157-.032v.032h7.276V34.564c0-3.472 2.425-5.808 5.606-5.808 3.464 0 4.157 2.62 4.157 4.83v11.268h3.118V32.859c.032-4.419-2.488-7.039-6.488-7.039zm-30.298 0c-5.669 0-9.102 4.325-9.102 9.817s3.465 9.659 9.512 9.659c3.307 0 5.763-1.231 7.653-3.251l-2.079-2.052c-1.48 1.578-3.275 2.43-5.511 2.43-3.654 0-6.079-2.24-6.268-6.123h14.582c.032-.253.063-.631.063-1.231.032-5.177-3.37-9.249-8.85-9.249zM119.113 26.388v-.031a4.505 4.505 0 0 1-.283-.852l-.347 1.01-.283 1.104c.378-.284.756-.536 1.165-.789l-.157-.284M120.499 20.928v.063h-.032l-.535 1.2.031.03h.032l.031-.062.126-.253a46.671 46.671 0 0 1 2.048-3.914v-.031l.755-1.231.315-.474.095-.126c.063-.19.094-.316.283-.695-.724.979-1.606 2.273-2.834 5.02m2.645-2.021c-.22-.442-.315-.947-.315-1.483a39.7 39.7 0 0 0-4.062 7.828c.031.505.157.978.346 1.42l.063.158.189.284.189-.095c.378-1.01.787-1.988 1.26-2.967.787-1.578 1.669-3.156 2.677-4.64l-.347-.505zM150.923 66.634l.094.063.315.316.693-.19.221-.063.378-.095M126.294 51.325l-.473-1.578-.126-.505-.283-1.042-.315-.032c-1.48-.189-2.96-.505-4.315-1.136l-.535-.284a8.148 8.148 0 0 1-1.638-1.2l-.22-.189a35.825 35.825 0 0 0 3.433 8.428l.346.284c.724.6 1.701 1.105 2.772 1.452.976.316 2.078.568 3.275.694a43.789 43.789 0 0 1-1.921-4.892zM183.772 17.33l-.819-1.326-.063.347c.032.505.41.915.882.978zM187.803 44.444c0 .19.063.378.158.505l.315-1.294a.93.93 0 0 0-.473.789z" fill="#00A7CE"/>
        <path d="m19.621 56.344.032-.442c0-1.989-1.323-3.63-3.433-3.63s-3.496 1.704-3.496 3.882 1.354 3.82 3.653 3.82c1.197 0 2.11-.442 2.866-1.263l-.63-.631c-.598.663-1.354 1.01-2.236 1.01-1.574 0-2.614-1.042-2.708-2.746m5.007-.79H13.7c.126-1.388 1.071-2.398 2.488-2.398 1.26 0 2.33.82 2.488 2.399zM5.543 59.817h.913v-4.04c0-1.516 1.071-2.62 2.52-2.62s1.795 1.2 1.795 2.146v4.482h.914v-4.703c0-1.83-1.071-2.84-2.615-2.84-1.165 0-1.984.536-2.614 1.514v-4.198h-.913v10.259zm-.661-.284-.441-.695a1.707 1.707 0 0 1-.977.284c-.85 0-1.26-.505-1.26-1.452v-4.356h2.489v-.852H2.205v-2.146H1.29v2.146H0v.852h1.291v4.356c0 .663.095 1.042.284 1.358.378.663 1.04.947 1.858.947.567 0 1.04-.127 1.449-.442zM60.974 53.408l.315-.82a2.05 2.05 0 0 0-1.04-.285c-.944 0-1.669.632-2.204 1.42V52.43h-.913v7.354h.913V55.84c0-1.768 1.008-2.683 2.047-2.683.378.031.63.126.882.252zm-4.819 2.936.032-.442c0-1.989-1.323-3.63-3.433-3.63s-3.496 1.704-3.496 3.882 1.354 3.82 3.653 3.82c1.197 0 2.11-.442 2.866-1.263l-.63-.631c-.598.663-1.322 1.01-2.236 1.01-1.575 0-2.614-1.042-2.708-2.746h5.952zm-.913-.79h-4.976c.126-1.388 1.039-2.398 2.488-2.398 1.26 0 2.33.82 2.488 2.399zm-8.157 4.262L49.1 52.46h-.913l-1.67 6.345-1.983-6.345h-.914l-2.015 6.345-1.67-6.345h-.945l2.016 7.355h1.071l1.953-6.187 1.952 6.187h1.103zm-11.748.158c2.173 0 3.527-1.673 3.527-3.851s-1.354-3.851-3.527-3.851-3.496 1.673-3.496 3.85c-.031 2.179 1.323 3.852 3.496 3.852zm0-6.818c1.606 0 2.551 1.325 2.551 2.998 0 1.673-.913 2.967-2.55 2.967-1.639 0-2.552-1.325-2.552-2.967 0-1.673.945-2.998 2.551-2.998zm-10.299-.695h-.913v9.849h.913v-3.82c.725 1.105 1.701 1.515 2.74 1.515 2.11 0 3.402-1.673 3.402-3.85 0-2.179-1.291-3.852-3.402-3.852-1.039 0-2.015.41-2.74 1.516V52.46zm2.614 6.629c-1.7 0-2.614-1.294-2.614-2.967s.914-2.967 2.614-2.967c1.701 0 2.551 1.325 2.551 2.967 0 1.641-.85 2.967-2.55 2.967zM76.186 50.41l.126-.79c-.22-.094-.662-.157-1.04-.157-1.196 0-2.015.536-2.015 1.925v1.073h-1.291v.852h1.29v6.503h.914v-6.503h1.795v-.852H74.17v-1.073c0-.79.378-1.073 1.102-1.073l.504.031m-7.432 9.628c2.173 0 3.527-1.673 3.527-3.851s-1.354-3.851-3.527-3.851c-2.174 0-3.496 1.673-3.496 3.85 0 2.179 1.322 3.852 3.496 3.852zm0-6.818c1.606 0 2.55 1.325 2.55 2.967 0 1.641-.913 2.967-2.55 2.967-1.638 0-2.52-1.326-2.52-2.967-.031-1.642.913-2.967 2.52-2.967zM91.524 53.187c1.732 0 2.645 1.231 2.645 2.715 0 1.483-.945 2.714-2.645 2.714-1.701 0-2.551-1.262-2.551-2.714s.819-2.715 2.55-2.715zm-8.252-.031c1.7 0 2.614 1.294 2.614 2.967s-.913 2.967-2.614 2.967c-1.7 0-2.551-1.326-2.551-2.967 0-1.642.85-2.967 2.551-2.967zm11.023 8.143c.567-.63.788-1.483.788-2.556V52.46h-.914v1.358c-.598-1.042-1.669-1.516-2.74-1.516-1.953 0-3.401 1.484-3.401 3.63 0 2.147 1.354 3.567 3.307 3.567 1.102 0 2.236-.473 2.834-1.515v.916c0 1.893-1.228 2.682-2.803 2.682-.976 0-1.795-.315-2.488-.789l-.567.758c.82.6 1.827.915 3.024.915 1.228-.031 2.267-.378 2.96-1.168zM86.8 58.238V52.46h-.913v1.358c-.724-1.105-1.7-1.516-2.74-1.516-2.11 0-3.401 1.673-3.401 3.851s1.29 3.851 3.433 3.851c.976 0 2.015-.347 2.74-1.389.094.947.692 1.326 1.385 1.326.19 0 .504-.032.725-.126l-.126-.758a1.15 1.15 0 0 1-.473.095c-.472-.032-.63-.316-.63-.915zM97.476 49.589h-.913v1.136h.913V49.59zm0 2.872h-.913v7.355h.913V52.46zM99.901 49.589h-.913v10.195h.913V49.59zM102.327 49.589h-.945v1.136h.913V49.59h.032zm0 2.872h-.945v7.355h.913V52.46h.032zM111.901 60.163l2.96-7.733h-.976l-2.268 6.123-2.582-6.123h-1.04l3.15 7.386-.189.473c-.283.726-.693 1.263-1.449 1.263-.346 0-.63-.126-.913-.284l-.441.726c.378.252.787.41 1.323.41 1.322.032 1.889-.757 2.425-2.24zm-4.063-.631-.409-.695a1.708 1.708 0 0 1-.977.284c-.85 0-1.26-.505-1.26-1.452v-4.356h2.489v-.852h-2.489v-2.146h-.913v2.146h-1.291v.852h1.291v4.356c0 .663.095 1.042.284 1.358.377.663 1.039.947 1.858.947.535 0 1.008-.127 1.417-.442z" fill="#001F5F"/>
        <path d="M186.984.032c-.346 0-.661.094-1.008.252-.315.19-.567.41-.756.758a1.96 1.96 0 0 0-.283 1.01c0 .347.094.694.252 1.01.189.315.441.568.756.757.315.19.661.253 1.008.253.346 0 .693-.095 1.008-.253a2.18 2.18 0 0 0 .755-.757c.189-.316.252-.663.252-1.01a1.96 1.96 0 0 0-.283-1.01 2.174 2.174 0 0 0-.756-.758c-.283-.19-.598-.252-.945-.252zm0 .315c.284 0 .567.063.819.221.283.158.472.347.63.631.157.285.22.569.22.853 0 .284-.063.568-.22.852-.158.252-.347.473-.63.631a1.629 1.629 0 0 1-.85.221c-.284 0-.567-.063-.851-.22-.252-.159-.472-.348-.63-.632-.157-.253-.22-.537-.22-.852 0-.284.063-.568.22-.853.158-.284.378-.473.63-.63.315-.127.599-.222.882-.222zm-.913 2.841h.346v-.947h.221c.126 0 .22.032.283.063.095.063.221.253.378.505l.189.347h.441l-.252-.441-.315-.442-.189-.127c.189 0 .347-.063.441-.189.126-.126.189-.252.189-.41l-.094-.316-.284-.22a2.14 2.14 0 0 0-.567-.064h-.756v2.241h-.031zm.378-1.231v-.663h.409l.347.032.157.126.063.19-.126.252c-.063.063-.22.095-.409.095h-.441v-.032z" fill="#00A7CE"/>
    </g>
    <defs>
        <clipPath id="lga39n7yga">
            <path fill="#fff" d="M0 0h189v72H0z"/>
        </clipPath>
    </defs>
</svg>
